M48
;Layer_Color=9474304
;FILE_FORMAT=2:5
INCH,LZ
;TYPE=PLATED
T1F00S00C0.01181
T2F00S00C0.01575
T3F00S00C0.01775
T4F00S00C0.03543
;TYPE=NON_PLATED
%
T01
X0005Y0024
Y0034
Y0044
Y0054
X00175Y0049
X002Y0044
X00175Y0039
Y0019
X002Y0014
X0035Y0024
X004
X0045
X005
X00475Y0029
X005Y0034
X00475Y0039
X005Y0044
X00475Y0049
X005Y0054
X00475Y0019
X005Y0014
X00475Y0059
T02
X0034725Y0051044
T03
X00239Y00531
T04
X00084Y00064
X00184
X00284
X00384
X00484
M30
